<svg xmlns="http://www.w3.org/2000/svg" viewBox="0 0 353.65 353.65"><defs><style>.cls-1{fill:#758bfd;}</style></defs><g id="Composant"><path class="cls-1" d="M221.69,15.83v87.1h-73.9a44.85,44.85,0,0,0-44.86,44.86v73.9H15.83A15.84,15.84,0,0,1,0,205.85v-190A15.83,15.83,0,0,1,15.83,0h190A15.84,15.84,0,0,1,221.69,15.83Z"/><rect class="cls-1" x="131.96" y="131.96" width="221.69" height="221.69" rx="15.83"/><path class="cls-1" d="M353.65,15.83v90a44.78,44.78,0,0,0-15.84-2.87H250.72V15.83A44.73,44.73,0,0,0,247.84,0h90A15.84,15.84,0,0,1,353.65,15.83Z"/><path class="cls-1" d="M105.8,353.65h-90A15.84,15.84,0,0,1,0,337.81v-90a44.73,44.73,0,0,0,15.83,2.88h87.1v87.09A44.78,44.78,0,0,0,105.8,353.65Z"/></g></svg>