<?xml version="1.0" encoding="UTF-8"?>
<svg xmlns="http://www.w3.org/2000/svg" xmlns:xlink="http://www.w3.org/1999/xlink" width="200px" height="70px" viewBox="0 0 654 152" version="1.1">
    <g id="surface1">
        <path style=" stroke:none;fill-rule:nonzero;fill:rgb(9.019608%,7.058824%,9.803922%);fill-opacity:1;" d="M 308.285156 16.875 C 319.078125 27.949219 324.472656 43.40625 324.476562 63.246094 L 324.476562 149.609375 L 287.3125 149.609375 L 287.3125 68.292969 C 287.3125 56.59375 284.390625 47.601562 278.550781 41.324219 C 272.710938 35.042969 264.746094 31.898438 254.664062 31.886719 C 244.390625 31.886719 236.292969 35.03125 230.371094 41.324219 C 224.445312 47.617188 221.480469 56.605469 221.476562 68.292969 L 221.476562 149.609375 L 184.3125 149.609375 L 184.3125 2.390625 L 221.476562 2.390625 L 221.476562 20.726562 C 226.519531 14.28125 233.027344 9.132812 240.460938 5.710938 C 248.15625 2.085938 256.605469 0.269531 265.808594 0.265625 C 283.332031 0.265625 297.488281 5.800781 308.285156 16.875 Z M 308.285156 16.875 "/>
        <path style=" stroke:none;fill-rule:nonzero;fill:rgb(9.019608%,7.058824%,9.803922%);fill-opacity:1;" d="M 359.121094 35.878906 C 365.050781 24.363281 373.101562 15.503906 383.28125 9.296875 C 393.457031 3.09375 404.832031 -0.0078125 417.40625 0 C 428.378906 0 437.980469 2.214844 446.210938 6.644531 C 454.441406 11.074219 461.035156 16.65625 465.988281 23.386719 L 465.988281 2.390625 L 503.417969 2.390625 L 503.417969 149.609375 L 465.976562 149.609375 L 465.976562 128.089844 C 461.195312 134.996094 454.601562 140.707031 446.195312 145.226562 C 437.789062 149.742188 428.101562 152 417.136719 152 C 404.746094 152 393.464844 148.8125 383.289062 142.4375 C 373.117188 136.0625 365.0625 127.070312 359.132812 115.460938 C 353.199219 103.863281 350.234375 90.53125 350.238281 75.472656 C 350.230469 60.597656 353.191406 47.398438 359.121094 35.878906 Z M 460.664062 52.746094 C 457.371094 46.542969 452.40625 41.386719 446.332031 37.867188 C 440.4375 34.445312 433.738281 32.65625 426.925781 32.6875 C 420.21875 32.636719 413.621094 34.382812 407.8125 37.738281 C 401.976562 41.101562 397.242188 46.015625 393.609375 52.480469 C 389.980469 58.949219 388.167969 66.609375 388.167969 75.472656 C 388.167969 84.328125 389.984375 92.078125 393.609375 98.71875 C 397.238281 105.363281 402.015625 110.457031 407.949219 114 C 413.667969 117.488281 420.234375 119.328125 426.925781 119.316406 C 433.734375 119.34375 440.425781 117.550781 446.3125 114.132812 C 452.386719 110.613281 457.351562 105.457031 460.644531 99.253906 C 464.179688 92.789062 465.953125 85.039062 465.953125 76.003906 C 465.957031 66.964844 464.195312 59.214844 460.664062 52.746094 Z M 460.664062 52.746094 "/>
        <path style=" stroke:none;fill-rule:nonzero;fill:rgb(9.019608%,7.058824%,9.803922%);fill-opacity:1;" d="M 563.664062 145.492188 C 554.105469 141.144531 546.539062 135.253906 540.964844 127.816406 C 535.503906 120.6875 532.3125 112.074219 531.804688 103.105469 L 569.242188 103.105469 C 569.941406 108.789062 572.730469 113.484375 577.601562 117.191406 C 582.476562 120.898438 588.53125 122.757812 595.765625 122.773438 C 602.84375 122.773438 608.375 121.355469 612.359375 118.519531 C 616.339844 115.683594 618.328125 112.054688 618.328125 107.628906 C 618.328125 102.84375 615.894531 99.253906 611.03125 96.859375 C 606.164062 94.464844 598.421875 91.851562 587.804688 89.019531 C 576.824219 86.367188 567.84375 83.621094 560.855469 80.785156 C 553.882812 77.957031 547.695312 73.484375 542.820312 67.746094 C 537.777344 61.898438 535.257812 54.015625 535.253906 44.097656 C 535.199219 36.105469 537.652344 28.296875 542.265625 21.773438 C 546.945312 15.046875 553.671875 9.730469 562.449219 5.832031 C 571.226562 1.933594 581.542969 -0.0117188 593.398438 0 C 610.921875 0 624.902344 4.386719 635.339844 13.15625 C 645.777344 21.925781 651.527344 33.753906 652.597656 48.644531 L 617.027344 48.644531 C 616.5 42.796875 614.066406 38.148438 609.726562 34.695312 C 605.386719 31.238281 599.59375 29.511719 592.335938 29.511719 C 585.613281 29.511719 580.4375 30.753906 576.804688 33.234375 C 573.175781 35.714844 571.363281 39.164062 571.367188 43.582031 C 571.367188 48.546875 573.84375 52.308594 578.796875 54.875 C 583.75 57.4375 591.449219 60.050781 601.890625 62.710938 C 612.511719 65.386719 621.273438 68.132812 628.175781 70.953125 C 635.121094 73.824219 641.269531 78.335938 646.09375 84.105469 C 651.136719 90.042969 653.746094 97.882812 653.925781 107.628906 C 654.035156 115.789062 651.582031 123.78125 646.910156 130.476562 C 642.234375 137.210938 635.511719 142.484375 626.742188 146.289062 C 617.96875 150.09375 607.75 151.996094 596.078125 152 C 584.023438 152 573.21875 149.832031 563.664062 145.492188 Z M 563.664062 145.492188 "/>
        <path style=" stroke:none;fill-rule:nonzero;fill:rgb(45.882353%,54.509804%,99.215686%);fill-opacity:1;" d="M 92.257812 8.980469 L 92.257812 45.242188 L 61.539062 45.242188 C 51.234375 45.242188 42.878906 53.601562 42.878906 63.917969 L 42.878906 94.679688 L 6.65625 94.679688 C 3.019531 94.679688 0.0703125 91.726562 0.0742188 88.082031 L 0.0742188 8.980469 C 0.0742188 5.34375 3.023438 2.390625 6.65625 2.390625 L 85.679688 2.390625 C 89.3125 2.394531 92.257812 5.34375 92.257812 8.980469 Z M 92.257812 8.980469 "/>
        <path style=" stroke:none;fill-rule:nonzero;fill:rgb(45.882353%,54.509804%,99.215686%);fill-opacity:1;" d="M 61.53125 57.320312 L 140.558594 57.320312 C 144.195312 57.320312 147.144531 60.273438 147.144531 63.910156 L 147.144531 143.019531 C 147.144531 146.65625 144.195312 149.609375 140.558594 149.609375 L 61.53125 149.609375 C 57.898438 149.609375 54.949219 146.65625 54.949219 143.019531 L 54.949219 63.910156 C 54.949219 60.273438 57.898438 57.320312 61.53125 57.320312 Z M 61.53125 57.320312 "/>
        <path style=" stroke:none;fill-rule:nonzero;fill:rgb(45.882353%,54.509804%,99.215686%);fill-opacity:1;" d="M 147.144531 8.980469 L 147.144531 46.433594 C 145.039062 45.640625 142.808594 45.238281 140.558594 45.242188 L 104.34375 45.242188 L 104.34375 8.980469 C 104.34375 6.730469 103.9375 4.5 103.144531 2.390625 L 140.558594 2.390625 C 144.195312 2.390625 147.144531 5.34375 147.144531 8.980469 Z M 147.144531 8.980469 "/>
        <path style=" stroke:none;fill-rule:nonzero;fill:rgb(45.882353%,54.509804%,99.215686%);fill-opacity:1;" d="M 44.074219 149.609375 L 6.65625 149.609375 C 3.023438 149.609375 0.0742188 146.65625 0.0742188 143.019531 L 0.0742188 105.566406 C 2.179688 106.359375 4.410156 106.761719 6.65625 106.757812 L 42.878906 106.757812 L 42.878906 143.019531 C 42.875 145.269531 43.28125 147.5 44.074219 149.609375 Z M 44.074219 149.609375 "/>
    </g>
</svg>
